<?xml version="1.0" encoding="utf-8"?>
<!-- Generator: Adobe Illustrator 21.0.2, SVG Export Plug-In . SVG Version: 6.00 Build 0)  -->
<svg version="1.1" id="Layer_1" xmlns="http://www.w3.org/2000/svg" xmlns:xlink="http://www.w3.org/1999/xlink" x="0px" y="0px"
	 viewBox="0 0 24 24" style="enable-background:new 0 0 24 24;" xml:space="preserve">
<style type="text/css">
	.st0{fill:#FFBD59;}
</style>
<path class="st0" d="M4.8,22v-9.9h2V20h7v-4.8l2.6-2.6c0.5-0.5,0.9-1,1.1-1.6C17.9,10.3,18,9.7,18,9c0-0.7-0.1-1.3-0.4-1.9
	c-0.3-0.6-0.6-1.1-1.1-1.6l-0.6-0.7L12.7,8h-4L7.6,9.1L6.2,7.7L7.8,6h4l4-4l2,2.1c0.7,0.7,1.2,1.4,1.6,2.3S20,8.1,20,9
	s-0.2,1.8-0.5,2.7c-0.4,0.8-0.9,1.6-1.6,2.3l-2,2.1v6H4.8z M9.8,17.3l-5.2-5.2c-0.2-0.2-0.3-0.4-0.4-0.7S4,11,4,10.7
	s0.1-0.5,0.2-0.8c0.1-0.2,0.2-0.5,0.4-0.6l2.1-2.1l3.1,3.1c0.5,0.5,0.8,1,1.1,1.6s0.4,1.2,0.4,1.9c0,0.7-0.1,1.3-0.4,1.9
	S10.3,16.8,9.8,17.3z"/>
</svg>
