<svg id="Layer_1" enable-background="new 0 0 512.116 512.116" height="512" viewBox="0 0 512.116 512.116" width="512" xmlns="http://www.w3.org/2000/svg"><g><path d="m232.351 154.886 36.113-36.113-21.213-21.213-36.113 36.113-27.483-27.483 36.113-36.113-21.213-21.213-36.113 36.113-27.482-27.483 36.113-36.113-21.213-21.213-36.113 36.113-30.333 30.333c-11.021 11.021-17.09 25.673-17.09 41.259s6.069 30.238 17.09 41.259l80.906 80.906 77.038-66.146z"/><path d="m362.98 428.698c11.375 11.375 26.316 17.063 41.259 17.063s29.884-5.688 41.259-17.063l30.333-30.333 36.112-36.113-21.213-21.213-36.112 36.113-27.483-27.483 36.113-36.113-21.213-21.213-36.113 36.113-27.483-27.483 36.113-36.113-21.213-21.213-36.113 36.113-8.962-8.962-66.074 77.109z"/><path d="m499.938 47.686c10.768-12.666 14.564-29.976 10.262-45.945-4.288-1.157-8.697-1.741-13.155-1.741-12.023 0-23.685 4.293-32.834 12.088l-283.441 243.367-51.59 10.057c-3.269-7.855-8.081-15.214-14.461-21.594-12.677-12.676-29.532-19.658-47.459-19.658s-34.783 6.981-47.46 19.658c-26.168 26.169-26.168 68.75 0 94.919 12.677 12.676 29.532 19.658 47.459 19.658s34.783-6.981 47.46-19.658c12.142-12.142 18.64-27.817 19.515-43.747l44.324-8.641 47.249 47.249-8.634 44.288c-16.535.894-31.954 7.751-43.754 19.551-26.169 26.169-26.169 68.75 0 94.919 12.677 12.677 29.531 19.658 47.459 19.658s34.783-6.981 47.459-19.658c26.168-26.169 26.168-68.75 0-94.919-6.292-6.291-13.614-11.176-21.585-14.504l10.063-51.623zm-406.432 269.939c-7.011 7.011-16.332 10.872-26.247 10.872s-19.236-3.861-26.246-10.871c-14.472-14.473-14.472-38.021 0-52.493 7.011-7.011 16.332-10.872 26.247-10.872s19.236 3.861 26.246 10.871c14.472 14.472 14.472 38.02 0 52.493zm153.62 101.126c14.472 14.472 14.472 38.021 0 52.493-7.011 7.011-16.332 10.872-26.247 10.872s-19.236-3.861-26.247-10.871c-14.472-14.473-14.472-38.021 0-52.493 7.011-7.01 16.332-10.871 26.247-10.871 9.915-.001 19.236 3.86 26.247 10.87z"/></g></svg>