<svg height="512pt" viewBox="-32 0 512 512" width="512pt" xmlns="http://www.w3.org/2000/svg"><path d="m394.667969 512h-341.335938c-5.890625 0-10.664062-4.777344-10.664062-10.667969v-213.332031h21.332031v202.667969h320v-202.667969h21.332031v213.332031c0 5.890625-4.773437 10.667969-10.664062 10.667969zm0 0"/><path d="m394.667969 298.667969c-16.789063 0-32.597657-7.90625-42.667969-21.335938-10.070312 13.429688-25.878906 21.335938-42.667969 21.335938-16.785156 0-32.59375-7.90625-42.664062-21.335938-10.074219 13.429688-25.882813 21.335938-42.667969 21.335938s-32.59375-7.90625-42.667969-21.335938c-10.070312 13.429688-25.878906 21.335938-42.664062 21.335938-16.789063 0-32.597657-7.90625-42.667969-21.335938-13.773438 18.367188-37.753906 25.855469-59.53125 18.597657-21.777344-7.257813-36.46875-27.640626-36.46875-50.597657 0-1.355469.253906-2.695312.757812-3.957031l42.667969-106.664062c1.617188-4.054688 5.542969-6.710938 9.90625-6.710938h21.335938v21.332031h-14.113281l-39.167969 97.921875c1 17.296875 15.585937 30.660156 32.90625 30.140625 17.320312-.519531 31.082031-14.734375 31.039062-32.0625 0-5.890625 4.777344-10.664062 10.667969-10.664062s10.667969 4.773437 10.667969 10.664062c0 17.675781 14.324219 32 32 32 17.671875 0 32-14.324219 32-32 0-5.890625 4.773437-10.664062 10.664062-10.664062s10.667969 4.773437 10.667969 10.664062c0 17.675781 14.328125 32 32 32s32-14.324219 32-32c0-5.890625 4.777344-10.664062 10.667969-10.664062s10.664062 4.773437 10.664062 10.664062c0 17.675781 14.328125 32 32 32 17.675781 0 32-14.324219 32-32 0-5.890625 4.777344-10.664062 10.667969-10.664062s10.667969 4.773437 10.667969 10.664062c-.53125 17.675781 13.367187 32.429688 31.039062 32.960938s32.429688-13.367188 32.960938-31.039063l-39.222657-97.921875h-14.113281v-21.332031h21.335938c4.363281 0 8.289062 2.65625 9.90625 6.710938l42.667969 106.664062c.503906 1.261719.757812 2.601562.757812 3.957031-.035156 29.441407-23.894531 53.300781-53.332031 53.335938zm0 0"/><path d="m373.332031 202.667969h-298.664062c-5.890625 0-10.667969-4.777344-10.667969-10.667969v-181.332031c0-5.890625 4.777344-10.667969 10.667969-10.667969h298.664062c5.890625 0 10.667969 4.777344 10.667969 10.667969v181.332031c0 5.890625-4.777344 10.667969-10.667969 10.667969zm-288-21.335938h277.335938v-160h-277.335938zm0 0"/><path d="m298.667969 426.667969c-17.675781 0-32-14.328125-32-32 0-17.675781 14.324219-32 32-32 17.671875 0 32 14.324219 32 32 0 17.671875-14.328125 32-32 32zm0-42.667969c-5.890625 0-10.667969 4.777344-10.667969 10.667969s4.777344 10.664062 10.667969 10.664062 10.664062-4.773437 10.664062-10.664062-4.773437-10.667969-10.664062-10.667969zm0 0"/><path d="m149.332031 426.667969c-17.671875 0-32-14.328125-32-32 0-17.675781 14.328125-32 32-32 17.675781 0 32 14.324219 32 32 0 17.671875-14.324219 32-32 32zm0-42.667969c-5.890625 0-10.664062 4.777344-10.664062 10.667969s4.773437 10.664062 10.664062 10.664062 10.667969-4.773437 10.667969-10.664062-4.777344-10.667969-10.667969-10.667969zm0 0"/><path d="m259.550781 469.332031c-.894531-.003906-1.785156-.113281-2.65625-.328125l-23.292969-5.996094c-6.300781-1.617187-12.902343-1.617187-19.203124 0l-23.285157 5.996094c-.867187.214844-1.757812.324219-2.65625.328125-15.121093.554688-27.84375-11.226562-28.457031-26.34375.296875-11.601562 8.0625-21.675781 19.199219-24.917969 6.484375-19.503906 24.273437-33.03125 44.800781-34.070312 20.527344 1.039062 38.316406 14.566406 44.800781 34.070312 11.136719 3.242188 18.902344 13.316407 19.199219 24.917969-.613281 15.113281-13.328125 26.890625-28.449219 26.34375zm-35.550781-28.863281c5.035156 0 10.054688.628906 14.933594 1.878906l21.75 5.589844c3.582031-.417969 6.003906-2.796875 6.003906-4.949219 0-2.359375-2.921875-4.992187-7.113281-4.992187-5.890625 0-10.667969-4.777344-10.667969-10.667969-2.480469-12.058594-12.632812-21.027344-24.90625-21.996094-12.265625.980469-22.410156 9.945313-24.886719 21.996094 0 5.890625-4.773437 10.667969-10.664062 10.667969-4.191407 0-7.117188 2.632812-7.117188 4.992187 0 2.132813 2.421875 4.53125 6.007813 4.949219l21.726562-5.589844c4.878906-1.25 9.898438-1.878906 14.933594-1.878906zm0 0"/><path d="m256 384c-17.671875 0-32-14.328125-32-32s14.328125-32 32-32 32 14.328125 32 32-14.328125 32-32 32zm0-42.667969c-5.890625 0-10.667969 4.777344-10.667969 10.667969s4.777344 10.667969 10.667969 10.667969 10.667969-4.777344 10.667969-10.667969-4.777344-10.667969-10.667969-10.667969zm0 0"/><path d="m192 384c-17.671875 0-32-14.328125-32-32s14.328125-32 32-32 32 14.328125 32 32-14.328125 32-32 32zm0-42.667969c-5.890625 0-10.667969 4.777344-10.667969 10.667969s4.777344 10.667969 10.667969 10.667969 10.667969-4.777344 10.667969-10.667969-4.777344-10.667969-10.667969-10.667969zm0 0"/><path d="m160 170.667969h-21.332031v-64h-21.335938v64h-21.332031v-74.667969c0-5.890625 4.777344-10.667969 10.667969-10.667969h42.664062c5.890625 0 10.667969 4.777344 10.667969 10.667969zm0 0"/><path d="m96 42.667969h21.332031v64h-21.332031zm0 0"/><path d="m213.332031 168.886719h-32c-5.890625 0-10.664062-4.777344-10.664062-10.667969v-62.21875c0-5.890625 4.773437-10.667969 10.664062-10.667969h32c5.890625 0 10.667969 4.777344 10.667969 10.667969v62.21875c0 5.890625-4.777344 10.667969-10.667969 10.667969zm-21.332031-21.335938h10.667969v-40.882812h-10.667969zm0 0"/><path d="m234.667969 42.667969h21.332031v128h-21.332031zm0 0"/><path d="m213.332031 53.332031h64v21.335938h-64zm0 0"/><path d="m320 170.667969h-42.667969c-5.890625 0-10.664062-4.777344-10.664062-10.667969v-64c0-5.890625 4.773437-10.667969 10.664062-10.667969h32c5.890625 0 10.667969 4.777344 10.667969 10.667969v32c0 5.890625-4.777344 10.667969-10.667969 10.667969h-21.332031v10.664062h32zm-32-53.335938h10.667969v-10.664062h-10.667969zm0 0"/><path d="m330.667969 42.667969h21.332031v128h-21.332031zm0 0"/></svg>