<svg id="Layer_1" data-name="Layer 1" xmlns="http://www.w3.org/2000/svg" viewBox="0 0 637.92 475.88"><defs><style>.cls-1{fill:#ffbd59;}.cls-2{fill:#fff;}</style></defs><title>Logo perrito</title><path class="cls-1" d="M108,32.14H68.38V0h97.46c0,7.8.63,15.59-.3,23.19-.39,3.21-3.86,6.19-6.28,9-11.75,13.54-23.62,27-35.4,40.47-.58.66-.7,1.72-1.42,3.63H168v32.92H67.56c0-8.08-.19-16,.14-24,.08-1.94,1.53-4.08,2.89-5.67,11.84-13.87,23.81-27.62,35.7-41.45A40.62,40.62,0,0,0,109,34Z"/><path class="cls-1" d="M40.66,203.61c10,0,18.41.2,26.77-.09,4.1-.14,5.89,1,5.64,5.3-.29,5.15-.07,10.34-.07,16H2.58c-6.16-14.73,3.82-23.37,11.8-32.73,4.45-5.22,9.15-10.24,13.5-15.54,1.1-1.35,1.3-3.44,1.91-5.19-1.62-.44-3.24-1.23-4.87-1.25C17.35,170,9.79,170,1.82,170V149a20.82,20.82,0,0,1,3.34-.53c20.22,0,40.44,0,60.66-.11,3.6,0,4.81,1.14,4.92,4.82.23,7.67-.2,14.36-6.71,20.31-7.35,6.72-13.31,15-19.68,22.71C42.9,197.9,42.25,200.3,40.66,203.61Z"/><path class="cls-2" d="M476.82,350.32V317.38c16,3.36,20.55,10.88,15.44,25.56-2.5,7.19-2.24,9.91,6.5,11.53,14.41,2.67,27.87,8.18,35.14,22.89,1,2,5.38,3.19,8.2,3.22,27.68.25,55.37.17,83,.18h5c5.11-.12,7.68,2.18,7.81,7.46.14,5.61-3.28,6.27-7.64,6.26q-39,0-78,0h-11c-.8,14.86-11.21,13.41-21.5,13.35-37.47-.23-74.94-.3-112.41.1-9.18.1-16.32-3.36-23.67-8-4.12-2.6-9.18-5-13.89-5.15-17.32-.62-34.68.11-52-.46-7.75-.26-14.12,1.29-18.79,7.48-3.76,5-8.57,6.07-14.5,6-36.35-.18-72.71-.33-109,.13-7.65.1-13.18-2.6-16.47-8.49-2.63-4.71-5.84-5-10.22-5-46.42.07-92.84.12-139.25-.17-3.1,0-8.09-2.19-8.88-4.5-1.93-5.63.45-9.21,7.59-9.11,24,.31,48.06.12,74.17.12-2.6-3.73-4-6.46-6.09-8.62C55.8,350.56,50.31,324.51,54,296c1.64-12.74,15-22.68,25.82-22.2,7,.31,14.15-.78,20.92.46,15.29,2.81,25.31-4,32.78-16.15,14-22.64,34.6-31.92,60.61-32,21.2,0,41.9,1.1,60.31,13.28,1.14.75,2.75,1.12,3.46,2.14,9.22,13.23,23.68,13.55,37.44,14.79a185.41,185.41,0,0,0,32.64.56c14.54-1.26,28.88-4.65,43.4-6.19,34.11-3.62,67.49-3.89,95.06,21.93,7.06,6.61,15,13.08,23.66,17,18.24,8.3,36.51,6.56,53.85-4,14.22-8.67,21.25-20.94,24.23-37.54,4-22.53-4.4-38.54-20.63-52.4-4-3.45-9.39-7.16-5.76-13.83,2.23-4.1,10.3-3.25,16.34,1.42C569.52,192,576.17,204,580.8,217c13.28,37.4-7.57,74-39.57,87.21-27.28,11.24-52.46,7.88-74.61-12.59-13.82-12.77-29.36-24-47.77-27.2a121.24,121.24,0,0,0-45.58,1.23c-24.56,5.4-48.88,9.78-74,7.25-6.47-.65-12.85-2.3-18.64-3.38.71,11.59,2,21.93,1.69,32.21-.19,5.46-2.71,11.13-5.28,16.14-2.35,4.59-.61,7.07,2.93,8.66,28,12.55,33.3,20.55,32.88,50.55a32.86,32.86,0,0,0,.48,3.58c17.16,0,34.39.12,51.6-.28,1,0,3.29-4.5,2.8-6.31-7.92-29.23,10.84-57.7,41.56-60.31,11.11-.94,12.15,1,9.81,12-7.24,2.6-14.37,4.63-21,7.67-11.14,5.09-20,21.28-17.75,31.42,3.82,17.54,16.35,29.39,31.67,29.47,34.67.17,69.35.15,104,.15a49.88,49.88,0,0,0,6.45-.83c-4.19-16.7-14.44-25.15-30.73-26.1-17.8-1-35.58-2.37-53.38-3.28-5.24-.27-8.46-1.49-8.51-7.57,0-6.37,4.11-6.38,8.43-6.4C450.73,350.28,463.24,350.32,476.82,350.32ZM129,380.59c7.86,0,16,.92,23.63-.45,3.07-.55,5.13-6.23,7.84-9.4,1.92-2.24,3.87-4.67,6.32-6.22,14.34-9,29-16.37,47-14.46,11.06,1.17,22.37-.2,33.5.55,2.83.19,6.57,3.6,7.81,6.44,1.71,3.92.08,7.5-5.42,7.7-12.58.47-25.31,2.7-37.67,1.36-14.06-1.53-24.74,3.15-35.8,10.66-5.35,3.63-6,7.83-4.29,11.8,1.18,2.78,6,5.61,9.27,5.65,32.7.4,65.41.27,98.12.15a13.23,13.23,0,0,0,6.87-1.78c11-7.17,17-22.45,10-35C288.1,343,272.52,336,256.57,339.73a161.1,161.1,0,0,1-31.13,4c-8,.25-14.23-5.1-16.83-12.35-7.73-21.6-2.6-44.09-3.14-66.19,0-1.69,4-4.63,6.4-4.89,2.15-.24,5.7,1.85,6.72,3.87A27,27,0,0,1,221,275.31c.36,14.24,0,28.51.53,42.75.31,8.69,7.42,14.75,15.19,11.61,8.81-3.56,17.84-8.65,24.32-15.43,8.81-9.21,8.56-21.21,4.65-33.44-3.53-11-8.45-20.75-17.76-27.77-16.65-12.57-35.88-14-55.85-13.14-21.36.9-37.72,9.18-48.14,28.45-8.43,15.58-20.8,24.63-39.62,21.73-2.08-.32-4.29.21-6.35.34-1.84,21.27-5.62,25.53-25.45,30.39-1.74.43-4.39,4.24-3.93,5.42,4,10.09,7.22,20.85,13.23,29.68,13.38,19.66,31,19.93,43.15,4.54,2.15-2.72,2.16-8.7.76-12.21-1.48-3.7-7.6-6.58-2.1-10.68,3.1-2.31,8.27-3.29,12.2-2.72,6.92,1,13.51,4.06,20.4,5.48,5.48,1.13,8.78,3.68,8.41,9.3-.42,6.38-5.84,4.35-9.63,5.14-3.55.74-8.3.86-10.25,3.17C139.09,364.65,134.55,372.36,129,380.59Z"/><path class="cls-2" d="M176.25,309.16c-14-2-22.74-7.51-27.32-18.87-2-4.93-2.12-10.37,3.3-12.83,4.79-2.18,7.77,1.27,10.13,5.72,6.33,11.92,10.67,12.49,21.86,5.39,2.67-1.69,8.12-1.67,10.84,0,5.32,3.2,2.33,8.52-.87,10.9C188.8,303.45,182.29,306,176.25,309.16Z"/><path class="cls-1" d="M20.07,475.28V460.54H8.45v14.74H2V441.42H8.41V455H20.07V441.4H26.5v33.86Z"/><path class="cls-1" d="M61.81,458.2a25.9,25.9,0,0,1-1.08,8,15.38,15.38,0,0,1-3,5.49,11.8,11.8,0,0,1-4.45,3.19,14.36,14.36,0,0,1-5.45,1q-6.75,0-10.15-4.44t-3.4-12.91a25.87,25.87,0,0,1,1.08-8,15.35,15.35,0,0,1,3-5.49,11.8,11.8,0,0,1,4.45-3.19,14.37,14.37,0,0,1,5.46-1q6.75,0,10.15,4.43T61.81,458.2Zm-6.8.31q0-6-1.62-9a5.62,5.62,0,0,0-5.34-3,6.18,6.18,0,0,0-3.17.76,6,6,0,0,0-2.16,2.24,11.34,11.34,0,0,0-1.24,3.64,28,28,0,0,0-.39,5q0,6,1.63,9a5.62,5.62,0,0,0,5.32,3,6.25,6.25,0,0,0,3.18-.76,5.85,5.85,0,0,0,2.16-2.24,11.53,11.53,0,0,0,1.23-3.64,28,28,0,0,0,.36-5Z"/><path class="cls-1" d="M85.15,446.73v28.55H78.56V446.73H69.19v-5.31H94.51v5.31Z"/><path class="cls-1" d="M105.73,475.28V441.42h20.59v5.39h-14v8.42h13.39v5.26H112.27v9.4h14v5.39Z"/><path class="cls-1" d="M139.86,475.28V441.42h6.54v28.39h14.44v5.47Z"/><path class="cls-1" d="M229.56,452.19a13.14,13.14,0,0,1-.89,4.88,10.55,10.55,0,0,1-2.64,3.87,12.15,12.15,0,0,1-4.37,2.54,18.49,18.49,0,0,1-6.07.91h-3.27v10.88h-6.49V441.42h10a21.92,21.92,0,0,1,5.87.71,12.11,12.11,0,0,1,4.29,2.08,8.9,8.9,0,0,1,2.64,3.38A11.11,11.11,0,0,1,229.56,452.19Zm-6.75.44a6.65,6.65,0,0,0-.43-2.45,4.83,4.83,0,0,0-1.31-1.88,5.93,5.93,0,0,0-2.21-1.19,10.75,10.75,0,0,0-3.17-.41h-3.37v12.41h3.58a8.83,8.83,0,0,0,3-.45,5.81,5.81,0,0,0,2.16-1.31,5.64,5.64,0,0,0,1.33-2A7.4,7.4,0,0,0,222.81,452.63Z"/><path class="cls-1" d="M258.33,475.28l-1.88-6.68H244.51l-1.94,6.68h-6.38l10.12-33.86h9l10.12,33.86Zm-7.77-27.64-4.5,15.75H255Z"/><path class="cls-1" d="M290.5,475.28l-4.81-10.88a4.89,4.89,0,0,0-4.76-3.13H279.7v14h-6.44V441.42h10a25.24,25.24,0,0,1,5.13.48,10.72,10.72,0,0,1,3.92,1.59,7.41,7.41,0,0,1,2.5,2.9,9.88,9.88,0,0,1,.88,4.38,9.3,9.3,0,0,1-.55,3.32,7.38,7.38,0,0,1-1.54,2.5,7.79,7.79,0,0,1-2.37,1.7,11.06,11.06,0,0,1-3,.91,4.28,4.28,0,0,1,2.3,1.41,14.13,14.13,0,0,1,2.09,3.33l5.47,11.35Zm-1.6-23.88a4,4,0,0,0-1.6-3.57,8.54,8.54,0,0,0-4.79-1.09h-2.82v9.56h2.62A10.94,10.94,0,0,0,285,456a6.13,6.13,0,0,0,2.08-.93,4.29,4.29,0,0,0,1.33-1.54,4.56,4.56,0,0,0,.52-2.14Z"/><path class="cls-1" d="M325.92,475.28,324,468.6H312.1l-1.94,6.68h-6.38l10.12-33.86h9L333,475.28Zm-7.77-27.64-4.5,15.75h9Z"/><path class="cls-1" d="M393.87,475.28l-.63-19.14L393,448.5l-1.65,5.18-3.78,11.52h-4l-3.43-11.53-1.44-5.18-.18,7.49-.58,19.3h-5.47l1.67-33.86h7.27l3,9.61,1.44,5.41,1.44-5.1,3.17-9.92h7.4l1.7,33.86Z"/><path class="cls-1" d="M427.3,475.28l-1.88-6.68H413.49l-1.94,6.68h-6.38l10.12-33.86h9l10.12,33.86Zm-7.77-27.64L415,463.39H424Z"/><path class="cls-1" d="M465.54,465a10.57,10.57,0,0,1-1,4.82,9.23,9.23,0,0,1-2.89,3.38,12.91,12.91,0,0,1-4.42,2,22.83,22.83,0,0,1-5.6.65,42.39,42.39,0,0,1-5.21-.31,31,31,0,0,1-5-1v-6.29q1.2.41,2.51.78t2.63.63q1.32.27,2.63.43a21.49,21.49,0,0,0,2.54.16,13.42,13.42,0,0,0,3.11-.31,6.5,6.5,0,0,0,2.09-.85,3.33,3.33,0,0,0,1.18-1.3,3.73,3.73,0,0,0,.37-1.66,3.1,3.1,0,0,0-.72-2.09,6.72,6.72,0,0,0-1.9-1.49,17.19,17.19,0,0,0-2.68-1.17q-1.5-.52-3.06-1.11a31.14,31.14,0,0,1-3.06-1.35,11,11,0,0,1-2.68-1.87,8.63,8.63,0,0,1-1.9-2.66,8.74,8.74,0,0,1-.72-3.72,9.88,9.88,0,0,1,.73-3.78,8.09,8.09,0,0,1,2.3-3.12,11.66,11.66,0,0,1,4-2.12,19.56,19.56,0,0,1,5.94-.79q1,0,2.13.09t2.2.23q1.09.14,2.09.34t1.84.4v5.83q-.84-.31-1.83-.57t-2-.45q-1.06-.19-2.13-.3a17.77,17.77,0,0,0-2-.1,13,13,0,0,0-2.88.27,6.24,6.24,0,0,0-1.94.75,2.89,2.89,0,0,0-1.1,1.18,3.49,3.49,0,0,0-.34,1.55,2.57,2.57,0,0,0,.72,1.83,6.92,6.92,0,0,0,1.91,1.37,22,22,0,0,0,2.69,1.14q1.5.53,3.09,1.14a30.78,30.78,0,0,1,3.09,1.39,12,12,0,0,1,2.69,1.89,8.65,8.65,0,0,1,1.91,2.63A8.3,8.3,0,0,1,465.54,465Z"/><path class="cls-1" d="M498.91,474a26.39,26.39,0,0,1-4.41,1.35,21.92,21.92,0,0,1-4.43.44,18.37,18.37,0,0,1-6.53-1.07,12.3,12.3,0,0,1-4.79-3.2,14,14,0,0,1-3-5.27,27,27,0,0,1,.09-14.92,15.76,15.76,0,0,1,3.14-5.62,13.37,13.37,0,0,1,5-3.5,17,17,0,0,1,6.55-1.21q1.18,0,2.21,0t2,.19q1,.14,2,.38t2.12.6v6.32a20.46,20.46,0,0,0-4.24-1.48,17.32,17.32,0,0,0-3.66-.44,9.18,9.18,0,0,0-4.16.87,7.63,7.63,0,0,0-2.84,2.43,10.73,10.73,0,0,0-1.63,3.73,20.18,20.18,0,0,0-.52,4.75,20.47,20.47,0,0,0,.54,4.91A10.08,10.08,0,0,0,484,467a7.25,7.25,0,0,0,2.88,2.29,10,10,0,0,0,4.16.79,11.39,11.39,0,0,0,1.87-.17q1-.17,2-.44t2-.65q1-.38,1.87-.76Z"/><path class="cls-1" d="M535,458.2a25.87,25.87,0,0,1-1.08,8,15.35,15.35,0,0,1-3,5.49,11.78,11.78,0,0,1-4.45,3.19,14.35,14.35,0,0,1-5.45,1q-6.75,0-10.15-4.44t-3.4-12.91a25.87,25.87,0,0,1,1.09-8,15.35,15.35,0,0,1,3-5.49,11.79,11.79,0,0,1,4.45-3.19,14.36,14.36,0,0,1,5.45-1q6.75,0,10.15,4.43T535,458.2Zm-6.8.31q0-6-1.62-9a5.62,5.62,0,0,0-5.34-3,6.18,6.18,0,0,0-3.17.76,6,6,0,0,0-2.16,2.24,11.32,11.32,0,0,0-1.24,3.64,28.11,28.11,0,0,0-.39,5q0,6,1.63,9a5.62,5.62,0,0,0,5.32,3,6.25,6.25,0,0,0,3.18-.76,5.84,5.84,0,0,0,2.16-2.24,11.53,11.53,0,0,0,1.23-3.64,28,28,0,0,0,.36-5Z"/><path class="cls-1" d="M558.26,446.73v28.55h-6.59V446.73H542.3v-5.31h25.32v5.31Z"/><path class="cls-1" d="M596.27,475.28l-1.88-6.68H582.46l-1.94,6.68h-6.38l10.12-33.86h9l10.12,33.86Zm-7.77-27.64L584,463.38h9Z"/><path class="cls-1" d="M634.51,465a10.57,10.57,0,0,1-1,4.82,9.23,9.23,0,0,1-2.89,3.38,12.91,12.91,0,0,1-4.42,2,22.83,22.83,0,0,1-5.6.65,42.39,42.39,0,0,1-5.21-.31,31,31,0,0,1-5-1v-6.29q1.2.41,2.51.78t2.63.63q1.32.27,2.63.43a21.49,21.49,0,0,0,2.54.16,13.42,13.42,0,0,0,3.11-.31,6.5,6.5,0,0,0,2.09-.85,3.33,3.33,0,0,0,1.18-1.3,3.73,3.73,0,0,0,.37-1.66,3.1,3.1,0,0,0-.72-2.09,6.72,6.72,0,0,0-1.9-1.49,17.19,17.19,0,0,0-2.68-1.17q-1.5-.52-3.06-1.11a31.14,31.14,0,0,1-3.06-1.35,11,11,0,0,1-2.68-1.87,8.63,8.63,0,0,1-1.9-2.66,8.74,8.74,0,0,1-.72-3.72,9.88,9.88,0,0,1,.73-3.78,8.09,8.09,0,0,1,2.3-3.12,11.66,11.66,0,0,1,4-2.12,19.56,19.56,0,0,1,5.94-.79q1,0,2.13.09t2.2.23q1.09.14,2.09.34t1.84.4v5.83q-.84-.31-1.83-.57t-2-.45q-1.06-.19-2.13-.3a17.77,17.77,0,0,0-2-.1,13,13,0,0,0-2.88.27,6.24,6.24,0,0,0-1.94.75,2.89,2.89,0,0,0-1.1,1.18,3.49,3.49,0,0,0-.34,1.55,2.57,2.57,0,0,0,.72,1.83,6.92,6.92,0,0,0,1.91,1.37,22,22,0,0,0,2.69,1.14q1.5.53,3.09,1.14a30.78,30.78,0,0,1,3.09,1.39,12,12,0,0,1,2.69,1.89,8.65,8.65,0,0,1,1.91,2.63A8.3,8.3,0,0,1,634.51,465Z"/></svg>