<svg id="Layer_1" data-name="Layer 1" xmlns="http://www.w3.org/2000/svg" viewBox="0 0 1366 768"><defs><style>.cls-1{fill:#ffbd59;}</style></defs><title>Logo naranja</title><path class="cls-1" d="M323.79,86.3H255.18V30.61H424c0,13.52,1.09,27-.52,40.18-.68,5.56-6.69,10.72-10.88,15.54-20.35,23.45-40.92,46.71-61.33,70.11-1,1.15-1.21,3-2.46,6.28h78.84v57H253.76c0-14-.33-27.77.24-41.51.14-3.36,2.65-7.07,5-9.83,20.51-24,41.24-47.86,61.84-71.8a70.38,70.38,0,0,0,4.75-7Z"/><path class="cls-1" d="M193.29,383.35c17.38,0,31.89.35,46.37-.15,7.1-.24,10.2,1.64,9.78,9.19-.5,8.93-.12,17.91-.12,27.64h-122c-10.67-25.52,6.62-40.49,20.44-56.71,7.71-9,15.85-17.74,23.38-26.92,1.91-2.33,2.25-6,3.31-9-2.81-.76-5.62-2.12-8.44-2.17-13.11-.23-26.22-.1-40-.1V288.69a36.07,36.07,0,0,1,5.79-.93c35-.08,70.06,0,105.09-.2,6.24,0,8.33,2,8.52,8.34.4,13.28-.35,24.87-11.62,35.18C221,342.72,210.71,357,199.67,370.44,197.18,373.47,196.05,377.63,193.29,383.35Z"/><path class="cls-1" d="M962.77,637.51V580.46c27.67,5.83,35.6,18.84,26.76,44.28-4.33,12.46-3.87,17.16,11.26,20,25,4.63,48.27,14.17,60.87,39.66,1.7,3.44,9.31,5.53,14.21,5.57,48,.43,95.92.29,143.88.32,2.91,0,5.81.07,8.72,0,8.85-.21,13.3,3.77,13.53,12.92.25,9.71-5.68,10.85-13.23,10.84q-67.58-.09-135.16,0h-19c-1.39,25.74-19.43,23.23-37.24,23.12-64.91-.39-129.83-.53-194.74.18-15.91.17-28.28-5.82-41-13.87-7.13-4.51-15.9-8.62-24.07-8.92-30-1.07-60.08.2-90.08-.8-13.42-.45-24.47,2.23-32.55,13-6.51,8.64-14.84,10.52-25.11,10.47-63-.3-126-.57-188.93.23-13.25.17-22.83-4.5-28.54-14.7-4.56-8.15-10.11-8.74-17.7-8.73-80.42.12-160.84.21-241.25-.29-5.36,0-14-3.8-15.39-7.8-3.35-9.76.79-15.95,13.15-15.79,41.63.54,83.27.21,128.49.21-4.51-6.46-7-11.19-10.55-14.93-35.54-37.41-45-82.55-38.6-132,2.84-22.07,25.9-39.29,44.74-38.45,12.09.54,24.52-1.35,36.25.8,26.49,4.86,43.86-7,56.79-28,24.19-39.22,59.94-55.29,105-55.41,36.72-.09,72.59,1.9,104.47,23,2,1.3,4.76,1.94,6,3.7,16,22.93,41,23.47,64.86,25.63,18.75,1.7,37.85,2.59,56.54,1,25.18-2.19,50-8.05,75.19-10.73,59.09-6.28,116.92-6.73,164.69,38,12.24,11.46,25.93,22.66,41,29.52,31.6,14.39,63.24,11.36,93.29-7,24.63-15,36.81-36.27,42-65,7-39-7.62-66.77-35.75-90.78-7-6-16.27-12.41-10-24,3.87-7.1,17.85-5.64,28.3,2.45,19.52,15.11,31,35.87,39.06,58.44,23,64.79-13.11,128.24-68.56,151.08-47.27,19.47-90.88,13.64-129.25-21.82-23.95-22.13-50.87-41.61-82.76-47.12-25.55-4.41-53.58-3.45-79,2.13-42.54,9.35-84.68,16.94-128.25,12.56-11.21-1.13-22.26-4-32.29-5.85,1.23,20.08,3.54,38,2.93,55.81-.33,9.46-4.7,19.28-9.14,28-4.07,8-1,12.26,5.08,15,48.56,21.75,57.69,35.6,57,87.57a56.91,56.91,0,0,0,.82,6.21c29.74,0,59.58.2,89.4-.49,1.81,0,5.71-7.79,4.86-10.93-13.73-50.64,18.78-100,72-104.48,19.24-1.63,21.05,1.67,17,20.84-12.55,4.51-24.9,8-36.44,13.29-19.3,8.82-34.57,36.87-30.75,54.43,6.61,30.39,28.32,50.92,54.86,51.05,60.07.29,120.14.27,180.21.27,3.68,0,7.37-.92,11.17-1.43-7.26-28.94-25-43.57-53.25-45.22-30.83-1.8-61.63-4.1-92.47-5.69-9.07-.47-14.65-2.59-14.74-13.12-.1-11,7.13-11,14.61-11.08C917.58,637.45,939.23,637.51,962.77,637.51ZM360.09,690c13.62,0,27.63,1.59,40.95-.78,5.31-.95,8.88-10.79,13.59-16.29,3.32-3.89,6.71-8.1,10.95-10.77,24.84-15.67,50.3-28.37,81.5-25.05,19.16,2,38.75-.35,58,1,4.9.33,11.38,6.24,13.53,11.16,3,6.8.13,13-9.38,13.35-21.79.81-43.85,4.68-65.26,2.35-24.37-2.65-42.86,5.46-62,18.47-9.26,6.29-10.35,13.56-7.44,20.45,2,4.81,10.44,9.72,16.06,9.79,56.65.7,113.32.47,170,.26,4,0,8.63-.94,11.9-3.08,19-12.42,29.36-38.89,17.33-60.59-14-25.25-41-37.4-68.61-31a279.1,279.1,0,0,1-53.93,6.89c-13.8.43-24.65-8.83-29.15-21.39-13.39-37.43-4.5-76.39-5.44-114.67-.07-2.93,7-8,11.08-8.48,3.73-.42,9.88,3.2,11.63,6.71,2.87,5.74,4,12.8,4.19,19.35.62,24.68,0,49.39.92,74.05.55,15,12.85,25.56,26.32,20.12,15.27-6.17,30.91-15,42.13-26.73,15.26-16,14.83-36.74,8-57.92C590.91,498,582.38,481.14,566.26,469c-28.85-21.78-62.16-24.21-96.76-22.76-37,1.55-65.35,15.9-83.4,49.29-14.6,27-36,42.67-68.63,37.65-3.6-.55-7.43.36-11,.59-3.19,36.85-9.74,44.23-44.09,52.65-3,.74-7.61,7.34-6.81,9.39,6.87,17.49,12.51,36.13,22.93,51.42,23.18,34.06,53.73,34.53,74.75,7.86C357,650.34,357,640,354.55,633.9c-2.56-6.41-13.16-11.4-3.64-18.5,5.37-4,14.33-5.71,21.14-4.72,12,1.73,23.4,7,35.34,9.49,9.5,2,15.21,6.37,14.57,16.11-.73,11.05-10.11,7.53-16.67,8.91-6.15,1.29-14.38,1.48-17.75,5.48C377.68,662.35,369.81,675.69,360.09,690Z"/><path class="cls-1" d="M442.06,566.21c-24.22-3.46-39.4-13-47.33-32.7-3.44-8.55-3.66-18,5.72-22.23,8.3-3.78,13.46,2.2,17.55,9.91,11,20.65,18.49,21.64,37.87,9.34,4.62-2.93,14.06-2.9,18.78-.06,9.22,5.54,4,14.77-1.5,18.88C463.79,556.32,452.52,560.73,442.06,566.21Z"/></svg>