<?xml version="1.0" encoding="utf-8"?>
<!-- Generator: Adobe Illustrator 21.0.2, SVG Export Plug-In . SVG Version: 6.00 Build 0)  -->
<svg version="1.1" id="Layer_1" xmlns="http://www.w3.org/2000/svg" xmlns:xlink="http://www.w3.org/1999/xlink" x="0px" y="0px"
	 viewBox="0 0 792 612" style="enable-background:new 0 0 792 612;" xml:space="preserve">
<g>
	<path d="M361.2,276.2c5.2-0.2,10.2,0.6,15,2.4c6.1,2.4,11.1,6.3,15.1,11.5c3.5,4.6,6,9.7,7.9,15.1c0.5,1.3,0.9,2.7,1.3,4
		c4.2,14.1,12.1,25.7,23.6,35c1.8,1.5,3.6,3,5.1,4.8c4.5,5.2,7.1,11.1,7.9,17.9c1.8,15.4-7.8,30.2-22.9,34.8
		c-7.2,2.2-14.4,1.9-21.4-0.8c-4.1-1.6-8.2-2.9-12.4-3.8c-5-1.1-10.1-1.7-15.2-1.6c-1.9,0-3.8,0-5.7,0.1c-8.9,0.4-17.4,2.4-25.6,5.9
		c-2.7,1.1-5.4,2-8.2,2.5c-8.4,1.3-16.2-0.3-23.3-5c-7.8-5.3-12.7-12.6-14.2-21.9c-1.8-12.2,2.1-22.4,11.5-30.4
		c3.3-2.9,6.5-5.9,9.3-9.3c6.4-7.9,10.8-16.7,13.4-26.6c1-4.1,2.3-8,4.1-11.8c2.1-4.5,4.8-8.6,8.3-12.2c5.1-5.2,11.3-8.3,18.5-9.7
		c1.5-0.3,3.1-0.5,4.7-0.6C359,276.2,360.1,276.2,361.2,276.2z"/>
	<path d="M257.2,300.7c0-6,1.3-11.7,4.1-16.9c1.9-3.5,4.4-6.6,7.6-9c3.6-2.8,7.8-4.4,12.3-4.5c3.6-0.1,7,0.6,10.2,2.2
		c3.6,1.8,6.5,4.3,8.9,7.5c3,3.9,4.9,8.3,5.9,13.1c1.5,7,1,13.8-1.6,20.5c-1.7,4.4-4.2,8.3-7.8,11.5c-3.2,2.8-6.8,4.7-11,5.4
		c-4.4,0.8-8.7,0.2-12.7-1.7c-3.7-1.7-6.7-4.3-9.1-7.5c-3.5-4.6-5.6-9.8-6.5-15.5C257.5,304.1,257.4,302.4,257.2,300.7z"/>
	<path d="M353.1,233.6c0,6.1-1.3,11.8-4.2,17.1c-2,3.7-4.6,6.8-8,9.3c-3.9,2.8-8.2,4.2-13,4.2c-3.5,0-6.8-1-9.8-2.6
		c-3.4-1.8-6.1-4.3-8.4-7.4c-3-3.9-4.8-8.4-5.8-13.2c-1.3-6.8-0.9-13.4,1.5-19.9c1.8-4.8,4.6-9,8.6-12.3c3.7-3,7.8-4.8,12.6-5.2
		c3.5-0.3,6.9,0.4,10.1,1.9c3.6,1.7,6.6,4.1,9.1,7.2c3.6,4.5,5.7,9.6,6.7,15.2C352.8,229.8,352.9,231.7,353.1,233.6z"/>
	<path d="M417.7,232c0,6.2-1.1,11.6-3.6,16.7c-1.9,3.7-4.4,7-7.7,9.6c-3.9,3.1-8.4,4.8-13.4,4.8c-4.1,0-7.9-1.1-11.4-3.3
		c-4.1-2.6-7.2-6.1-9.5-10.3c-2.5-4.6-3.9-9.5-4.1-14.8c-0.3-5.9,0.6-11.5,3.1-16.8c1.8-4,4.3-7.4,7.7-10.2
		c4.1-3.4,8.8-5.2,14.1-5.2c4.2,0,8,1.3,11.5,3.5c3.3,2.1,5.9,4.9,8.1,8.2c2.9,4.6,4.6,9.6,5.1,15
		C417.6,230.4,417.6,231.5,417.7,232z"/>
	<path d="M465.6,297.2c0,6.9-1.3,12.8-4.5,18.3c-2,3.4-4.5,6.4-7.7,8.7c-3.5,2.5-7.4,3.9-11.7,4.1c-3.8,0.2-7.4-0.7-10.8-2.5
		c-3.1-1.6-5.7-3.9-8-6.6c-3.5-4.3-5.6-9.2-6.6-14.6c-1.2-6.5-0.8-13,1.6-19.2c1.9-5,4.7-9.3,8.9-12.6c4.2-3.3,8.9-5.1,14.3-5
		c3.6,0.1,7,1.1,10.1,2.9c3.4,2,6.2,4.7,8.5,8c3.3,4.8,5.1,10,5.7,15.8C465.5,295.5,465.5,296.6,465.6,297.2z"/>
</g>
</svg>
