<?xml version="1.0" standalone="no"?>
<!DOCTYPE svg PUBLIC "-//W3C//DTD SVG 20010904//EN"
 "http://www.w3.org/TR/2001/REC-SVG-20010904/DTD/svg10.dtd">
<svg version="1.0" xmlns="http://www.w3.org/2000/svg"
 width="800.000000pt" height="410.000000pt" viewBox="0 0 800.000000 410.000000"
 preserveAspectRatio="xMidYMid meet">

<g transform="translate(0.000000,410.000000) scale(0.100000,-0.100000)"
fill="#000000" stroke="none">
<path d="M4255 3916 c-85 -37 -64 -77 46 -85 l72 -6 17 -51 c22 -64 47 -112
76 -147 13 -16 24 -36 24 -46 0 -26 61 -101 83 -101 10 0 32 -7 49 -16 23 -12
33 -13 38 -4 5 8 14 3 27 -16 l20 -27 8 29 c7 26 8 27 15 9 5 -13 2 -26 -7
-36 -12 -15 -12 -19 4 -35 17 -16 18 -16 21 -1 2 10 8 15 13 11 6 -3 16 0 24
6 12 10 15 10 16 -1 1 -8 2 -21 3 -29 2 -8 3 -27 4 -41 2 -19 7 -25 22 -24 11
1 23 4 26 8 4 4 12 7 18 7 6 0 5 -5 -2 -12 -19 -19 -14 -33 6 -15 17 16 65 20
56 5 -3 -4 -12 -4 -21 -1 -15 6 -16 5 -3 -9 9 -10 19 -13 26 -7 6 5 14 5 19 1
4 -4 4 3 1 15 -6 18 -4 22 9 17 10 -4 27 4 45 21 34 33 36 80 4 99 -10 6 -20
17 -22 25 -2 8 -11 20 -20 27 -9 7 -15 14 -12 16 3 2 28 22 55 44 28 21 64 53
82 71 34 36 53 42 53 18 0 -9 11 -21 25 -27 14 -6 25 -16 25 -23 0 -6 22 -39
50 -72 44 -56 47 -63 30 -68 -11 -4 -20 -10 -20 -14 0 -15 -63 -70 -73 -64 -6
4 -7 -4 -3 -22 7 -28 55 -95 69 -95 4 0 7 -4 7 -10 0 -13 -31 0 -59 26 -13 12
-31 20 -39 16 -10 -3 -13 -1 -8 6 4 7 2 12 -3 12 -13 0 -14 -10 -2 -28 4 -7
14 -12 22 -10 8 2 14 -6 15 -21 1 -13 7 -26 13 -30 13 -8 41 -100 44 -148 2
-18 6 -35 9 -39 4 -3 4 -13 1 -22 -5 -12 -2 -14 13 -9 19 7 19 7 0 -8 -11 -8
-16 -15 -11 -15 4 0 0 -9 -10 -20 -19 -21 -57 -25 -129 -12 -44 8 -62 31 -21
27 45 -5 115 86 115 149 0 21 -57 85 -78 87 -4 0 -26 2 -50 4 -46 4 -100 -14
-121 -39 -18 -21 -16 -77 3 -113 8 -17 12 -34 8 -38 -4 -5 -1 -5 6 -1 7 4 15
1 18 -8 3 -9 13 -16 21 -16 8 0 11 -5 7 -12 -5 -8 -2 -9 9 -5 11 4 17 1 17 -9
0 -13 -9 -15 -57 -9 -32 4 -68 8 -80 9 -11 0 -20 4 -18 7 2 3 -5 18 -16 35
-22 34 -24 45 -6 40 6 -1 9 -1 5 1 -10 6 2 35 24 56 10 10 18 25 18 33 0 23
48 82 79 97 14 7 27 21 30 32 3 20 3 20 -18 1 -19 -17 -26 -15 -22 7 0 4 -4 7
-9 7 -6 0 -10 -4 -10 -10 0 -5 -6 -7 -13 -4 -7 2 -21 -2 -32 -10 -12 -9 -15
-15 -7 -16 10 0 9 -6 -2 -29 -9 -16 -12 -31 -9 -35 4 -3 -2 -13 -13 -21 -12
-9 -14 -14 -6 -15 7 0 10 -5 6 -11 -3 -6 -17 -9 -30 -6 -22 4 -22 3 -8 -24 17
-33 17 -39 3 -39 -5 0 -8 4 -4 10 3 5 -11 27 -30 49 -20 22 -34 45 -31 50 10
16 -14 24 -31 9 -14 -11 -16 -11 -10 4 4 12 2 15 -7 12 -8 -3 -17 -1 -21 5
-10 17 23 25 42 10 14 -12 16 -12 11 1 -2 8 -15 17 -28 18 -13 2 -29 11 -36
19 -8 12 -10 3 -7 -43 7 -106 41 -169 106 -193 28 -11 37 -31 13 -31 -8 0 -21
-3 -30 -6 -12 -5 -16 0 -16 20 0 14 -4 26 -9 26 -14 0 -51 -51 -50 -69 0 -11
4 -9 11 7 13 27 32 30 23 3 -4 -13 0 -20 16 -24 20 -5 21 -8 8 -24 -10 -13 -6
-12 17 4 17 12 37 29 44 38 11 13 17 11 46 -22 18 -21 33 -48 34 -60 0 -13 4
-23 9 -23 5 0 7 -8 4 -19 -6 -22 35 -57 83 -70 62 -17 155 21 162 67 2 12 25
37 52 56 27 20 58 53 70 75 11 22 25 43 32 47 10 6 10 4 0 -8 -17 -21 -1 -31
31 -19 25 10 63 53 87 100 10 19 10 22 -1 15 -8 -4 -4 5 9 20 24 31 28 46 12
46 -5 0 -10 -7 -10 -15 0 -19 -9 -19 -34 0 -19 15 -19 15 4 15 18 0 21 3 12
12 -9 9 -18 8 -37 -2 l-26 -14 25 -13 c30 -16 34 -23 8 -16 -13 3 -22 -7 -36
-38 l-19 -42 -18 21 c-21 26 -34 29 -25 5 5 -13 -1 -10 -19 8 -28 27 -43 89
-22 89 8 0 9 3 1 8 -29 19 -23 48 9 43 4 -1 3 7 -3 18 -8 17 -7 20 9 18 11 0
19 -5 18 -10 -1 -5 4 -12 12 -15 8 -3 11 0 7 7 -10 15 7 14 23 -1 11 -10 13
-10 7 0 -5 8 0 12 13 12 12 0 31 12 44 26 56 66 67 69 67 19 0 -19 4 -35 9
-35 5 0 8 8 6 18 -1 9 0 21 3 27 4 5 7 17 7 25 6 68 5 66 16 47 5 -9 7 -22 4
-27 -4 -7 2 -7 17 -1 13 4 50 17 83 26 80 25 122 56 135 103 6 24 20 43 39 54
23 13 108 137 124 181 1 5 38 13 82 18 84 11 111 23 85 39 -32 20 -101 22
-159 6 -56 -16 -60 -15 -102 4 -51 23 -149 27 -213 8 -62 -17 -62 -23 -2 -38
48 -11 56 -17 61 -42 5 -20 2 -35 -9 -47 -9 -10 -16 -28 -16 -42 -1 -54 -27
-148 -50 -176 -24 -30 -28 -31 -90 -27 -114 6 -160 23 -218 78 -38 35 -58 77
-74 151 -13 63 -23 75 -60 75 -22 0 -28 -4 -26 -17 2 -10 -2 -17 -9 -16 -6 1
-25 -19 -42 -45 -39 -62 -67 -87 -116 -108 -47 -19 -146 -22 -198 -5 -38 13
-77 0 -77 -26 0 -7 -7 -13 -16 -13 -11 0 -14 6 -8 23 3 12 11 28 17 35 7 9 5
18 -7 31 -14 15 -17 36 -15 103 1 45 6 91 11 101 6 12 5 23 -2 32 -6 7 -8 24
-5 38 6 23 3 26 -30 33 -21 4 -73 4 -116 0 -68 -6 -86 -3 -144 19 -77 29 -79
29 -120 11z m269 -238 c-16 -12 -35 -26 -41 -31 -9 -7 -13 -5 -13 6 0 9 12 23
28 31 41 23 59 19 26 -6z m1234 -91 c33 -31 48 -73 17 -47 -8 7 -15 10 -15 7
0 -3 -15 7 -32 24 -18 16 -35 29 -39 29 -4 0 -9 7 -13 15 -9 25 45 7 82 -28z
m-1208 -51 c0 -3 -4 -8 -10 -11 -5 -3 -10 -1 -10 4 0 6 5 11 10 11 6 0 10 -2
10 -4z m380 -86 c0 -5 -7 -10 -15 -10 -8 0 -15 5 -15 10 0 6 7 10 15 10 8 0
15 -4 15 -10z m-20 -50 c0 -5 -4 -10 -10 -10 -5 0 -10 5 -10 10 0 6 5 10 10
10 6 0 10 -4 10 -10z m430 -8 c0 -13 -12 -22 -22 -16 -10 6 -1 24 13 24 5 0 9
-4 9 -8z m0 -52 c0 -5 -4 -10 -10 -10 -5 0 -10 5 -10 10 0 6 5 10 10 10 6 0
10 -4 10 -10z m75 -50 c-10 -11 -20 -18 -23 -15 -3 3 3 14 13 25 10 11 20 18
23 15 3 -3 -3 -14 -13 -25z m-442 -47 c-7 -2 -19 -2 -25 0 -7 3 -2 5 12 5 14
0 19 -2 13 -5z m237 -3 c0 -5 -5 -10 -11 -10 -5 0 -7 5 -4 10 3 6 8 10 11 10
2 0 4 -4 4 -10z m-106 -109 c3 -4 -6 -7 -20 -5 -35 3 -43 14 -11 14 14 0 28
-4 31 -9z m-290 -66 c3 -8 1 -15 -3 -15 -5 0 -11 7 -15 15 -3 8 -1 15 3 15 5
0 11 -7 15 -15z m-39 -5 c3 -5 1 -10 -4 -10 -6 0 -11 5 -11 10 0 6 2 10 4 10
3 0 8 -4 11 -10z m202 -148 c23 -27 36 -34 73 -36 48 -3 88 9 107 34 21 27 27
0 8 -36 -29 -55 -60 -74 -117 -74 -43 0 -54 4 -78 30 -15 16 -31 45 -34 65 -4
19 -14 39 -24 44 -14 8 -12 10 10 8 17 -1 38 -14 55 -35z"/>
<path d="M4690 3859 c0 -5 5 -7 10 -4 6 3 10 8 10 11 0 2 -4 4 -10 4 -5 0 -10
-5 -10 -11z"/>
<path d="M4758 3855 c-35 -20 -78 -109 -85 -178 -5 -52 -4 -58 24 -86 35 -35
96 -54 174 -54 77 0 129 31 180 107 46 69 55 99 41 131 -31 67 -258 121 -334
80z"/>
<path d="M5278 3764 c-33 -17 -43 -49 -35 -115 13 -109 85 -187 194 -209 120
-25 176 12 188 126 9 82 -5 136 -44 163 -64 46 -245 67 -303 35z"/>
<path d="M5640 3711 c0 -5 5 -13 10 -16 6 -3 10 -2 10 4 0 5 -4 13 -10 16 -5
3 -10 2 -10 -4z"/>
<path d="M4715 3350 c-3 -6 1 -7 9 -4 18 7 21 14 7 14 -6 0 -13 -4 -16 -10z"/>
<path d="M4635 2959 c-4 -6 -5 -12 -2 -15 2 -3 7 2 10 11 7 17 1 20 -8 4z"/>
<path d="M4647 2929 c-14 -8 -17 -18 -12 -40 4 -18 2 -36 -6 -45 -6 -8 -9 -17
-6 -20 10 -10 47 59 47 89 0 15 -1 27 -2 27 -2 0 -11 -5 -21 -11z"/>
<path d="M4568 2874 c-12 -12 -13 -20 -4 -40 14 -31 28 -31 20 0 -3 13 -1 27
5 30 13 8 15 26 3 26 -4 0 -15 -7 -24 -16z"/>
<path d="M4697 2865 c-21 -18 -27 -31 -22 -45 6 -19 9 -18 36 16 45 57 37 73
-14 29z"/>
<path d="M5276 2844 c-3 -9 -6 -23 -6 -32 1 -12 5 -10 15 8 8 14 14 28 15 33
0 13 -18 7 -24 -9z"/>
<path d="M5370 2850 c-13 -8 -12 -10 3 -10 9 0 17 5 17 10 0 12 -1 12 -20 0z"/>
<path d="M5315 2840 c-3 -6 1 -7 9 -4 18 7 21 14 7 14 -6 0 -13 -4 -16 -10z"/>
<path d="M4645 2786 c11 -8 24 -12 28 -9 11 7 -12 23 -32 23 -11 0 -9 -4 4
-14z"/>
<path d="M5250 2791 c-39 -7 -53 -36 -23 -45 14 -4 19 -16 20 -44 0 -36 0 -36
-9 -9 -15 41 -36 33 -50 -19 -7 -25 -23 -57 -35 -70 -12 -13 -18 -24 -13 -24
11 0 9 -28 -3 -47 -5 -8 -3 -13 6 -13 7 0 23 -11 35 -25 18 -20 20 -30 12 -45
-7 -12 -7 -20 -1 -20 9 0 45 61 39 65 -2 1 -11 6 -20 11 -15 8 -15 11 -1 29 9
11 13 14 11 5 -5 -17 17 -44 30 -36 4 2 14 1 22 -4 11 -7 11 -11 1 -24 -10
-11 -10 -16 -2 -16 14 0 18 11 24 68 4 31 2 42 -8 42 -7 0 -16 -6 -18 -12 -3
-7 -6 -4 -6 7 -1 22 44 45 88 45 l23 0 -24 29 c-26 33 -38 38 -38 16 0 -18 -7
-19 -24 -3 -11 10 -9 16 10 30 21 17 54 15 54 -3 0 -18 28 -8 46 16 11 14 29
25 43 25 20 0 21 2 11 15 -8 10 -30 15 -61 15 -27 0 -49 5 -49 10 0 6 5 10 10
10 6 0 10 5 10 11 0 5 -4 8 -9 4 -5 -3 -12 -1 -16 5 -7 11 -29 11 -85 1z m29
-54 c8 -10 7 -14 -4 -14 -8 0 -15 6 -15 14 0 7 2 13 4 13 2 0 9 -6 15 -13z
m-59 -47 c0 -5 -5 -10 -11 -10 -5 0 -7 5 -4 10 3 6 8 10 11 10 2 0 4 -4 4 -10z
m12 -82 c-7 -7 -12 -8 -12 -2 0 14 12 26 19 19 2 -3 -1 -11 -7 -17z m-52 -18
c0 -5 -7 -10 -16 -10 -8 0 -12 5 -9 10 3 6 10 10 16 10 5 0 9 -4 9 -10z"/>
<path d="M4530 2783 c6 -3 4 -15 -5 -33 -18 -35 -10 -87 16 -100 24 -14 29
-13 29 6 0 8 5 12 10 9 6 -3 10 0 10 8 0 7 -16 19 -35 27 -23 9 -31 16 -23 21
7 4 15 6 19 4 3 -3 3 10 0 27 -4 17 -12 33 -19 34 -7 1 -8 0 -2 -3z"/>
<path d="M4590 2771 c-5 -11 -7 -22 -2 -25 4 -2 12 7 19 20 13 28 -2 33 -17 5z"/>
<path d="M4548 2596 c-3 -16 -1 -23 7 -19 7 2 11 13 8 24 -7 25 -10 24 -15 -5z"/>
<path d="M5311 2557 c-9 -11 -5 -14 20 -15 25 -1 28 2 18 14 -14 18 -23 18
-38 1z"/>
<path d="M5160 2460 c-9 -6 -10 -10 -3 -10 6 0 15 5 18 10 8 12 4 12 -15 0z"/>
<path d="M3351 2407 c0 -16 -5 -26 -9 -23 -13 8 -83 -36 -105 -65 -10 -15 -19
-43 -20 -63 -1 -22 -6 -36 -14 -36 -7 0 -13 -4 -13 -9 0 -6 -11 -22 -25 -37
-14 -15 -25 -23 -25 -17 0 5 -15 7 -32 5 -66 -7 -110 -7 -114 0 -3 5 -42 7
-87 6 l-82 -2 85 -6 85 -6 -70 -3 c-157 -7 -117 -18 50 -14 150 4 177 2 164
-9 -9 -7 -14 -19 -12 -25 6 -16 -43 -18 -52 -2 -5 6 -13 2 -22 -11 -12 -17
-17 -19 -24 -9 -7 11 -9 10 -9 -4 0 -14 5 -17 20 -12 15 5 18 3 14 -9 -5 -12
1 -16 25 -16 24 0 29 3 25 18 -5 16 -5 15 6 -1 7 -12 18 -16 31 -12 10 4 19 2
19 -4 0 -10 31 -8 50 4 6 4 7 -1 3 -12 -6 -16 -5 -16 10 -4 13 11 20 11 32 1
11 -9 19 -8 37 4 28 20 42 20 34 1 -4 -11 1 -15 19 -15 14 0 25 -6 25 -12 0
-9 4 -8 10 2 7 11 12 12 18 3 4 -6 29 -13 55 -14 26 -2 47 -6 47 -11 0 -5
-138 -8 -306 -8 -169 1 -309 -2 -312 -5 -3 -3 165 -5 373 -5 260 0 376 -3 369
-10 -7 -7 -175 -10 -502 -8 l-491 3 -7 -25 c-10 -34 -11 -48 -13 -135 -1 -77
-16 -102 -23 -40 -2 20 -2 38 1 40 2 3 6 17 7 31 2 21 0 23 -12 13 -13 -11
-21 1 -8 14 4 4 8 23 10 44 2 21 6 48 9 61 5 21 3 22 -54 22 -56 0 -59 -1 -53
-22 3 -12 7 -17 10 -10 5 16 50 16 49 0 -1 -39 6 -50 13 -18 l7 35 2 -43 c0
-26 -3 -41 -9 -37 -5 3 -12 -6 -16 -21 -5 -19 -9 -22 -15 -12 -7 10 -12 11
-28 1 -17 -10 -19 -10 -15 1 4 9 -5 15 -25 18 -17 3 -31 1 -31 -4 0 -20 -20 5
-21 25 -1 18 -2 17 -9 -7 -5 -16 -6 -34 -3 -39 3 -6 1 -7 -5 -3 -10 6 -11 35
-3 77 2 10 55 8 67 -2 15 -12 25 11 17 39 -3 14 -15 21 -40 24 -19 2 -37 0
-40 -5 -3 -5 -9 -3 -14 4 -7 11 -11 10 -23 -6 -15 -19 -15 -19 -16 13 0 32 0
32 24 17 22 -15 24 -14 29 5 3 13 -1 24 -14 30 -11 6 -16 16 -12 26 9 23 243
17 243 -7 0 -9 -9 -23 -20 -30 -12 -8 -17 -19 -12 -26 5 -8 13 -7 30 6 20 14
23 26 23 73 l0 56 96 7 c272 20 -152 33 -482 14 -93 -5 -178 -9 -187 -10 -10
0 -20 -4 -23 -9 -3 -5 -5 -145 -5 -310 0 -266 2 -303 16 -318 14 -13 51 -18
203 -25 102 -4 209 -8 236 -7 28 1 309 3 625 6 416 3 581 1 596 -7 13 -6 43
-9 75 -5 30 3 110 8 179 11 69 3 134 10 145 15 11 5 43 11 70 12 l50 3 7 75
c3 41 6 177 7 302 l0 228 -32 17 c-20 10 -67 18 -124 21 -51 3 -93 8 -93 12 0
4 7 14 17 21 14 12 11 15 -33 25 -45 10 -50 9 -66 -9 -12 -16 -19 -18 -30 -10
-7 6 -24 14 -36 18 -21 6 -23 4 -17 -14 6 -21 5 -21 -88 -15 -81 6 -95 5 -100
-10 -10 -26 -42 -19 -80 19 -19 19 -31 35 -25 35 13 0 0 57 -20 91 -16 28 -70
59 -102 59 -13 0 -20 9 -23 28 l-4 27 -2 -27 c0 -16 -5 -28 -10 -28 -5 0 -12
12 -14 28 l-4 27 -2 -28z m36 -89 c6 -7 10 -20 10 -28 1 -8 4 -23 8 -33 7 -16
3 -18 -41 -15 -38 2 -48 6 -45 18 2 8 3 24 3 35 -2 32 45 49 65 23z m8 -158
c15 -6 7 -9 -30 -9 -36 -1 -46 2 -35 9 18 12 38 12 65 0z m-1045 -29 c0 -12
-57 -41 -79 -41 -13 0 -14 2 -2 9 11 7 4 11 -25 16 -91 15 -89 23 9 24 53 1
97 -3 97 -8z m1195 -1 c-3 -5 -18 -9 -33 -9 l-27 1 30 8 c17 4 31 8 33 9 2 0
0 -3 -3 -9z m95 0 c0 -5 -13 -10 -30 -10 -16 0 -30 5 -30 10 0 6 14 10 30 10
17 0 30 -4 30 -10z m-403 -6 c-3 -3 -12 -4 -19 -1 -8 3 -5 6 6 6 11 1 17 -2
13 -5z m471 -11 c4 -6 18 -10 32 -10 14 1 51 -3 83 -7 46 -6 61 -13 74 -33 16
-24 16 -26 -2 -39 -10 -8 -23 -14 -27 -14 -5 0 -4 -9 2 -19 5 -11 10 -28 9
-38 0 -16 -1 -16 -8 2 -6 15 -17 20 -44 20 -34 0 -37 -2 -37 -29 0 -25 3 -27
24 -22 16 4 26 1 30 -10 3 -8 10 -12 16 -9 6 3 10 -3 10 -15 0 -16 -5 -20 -15
-16 -8 3 -15 1 -15 -5 0 -6 -6 -9 -14 -6 -8 3 -17 3 -20 0 -3 -3 -26 -7 -51
-9 -34 -2 -45 1 -45 12 0 9 -4 12 -10 9 -5 -3 -10 4 -11 17 -1 23 -1 23 -9 -2
-7 -22 -8 -21 -11 15 l-2 40 -4 -38 c-3 -25 1 -42 12 -53 9 -9 13 -19 10 -22
-3 -4 -10 0 -15 8 -8 13 -10 13 -10 0 0 -9 4 -20 8 -25 5 -6 6 -39 3 -75 -9
-93 -23 -45 -26 85 -1 55 -5 111 -9 125 -14 57 -17 98 -7 104 6 4 13 -4 17
-19 7 -29 39 -51 49 -34 4 6 -2 21 -14 33 -13 14 -21 35 -21 57 0 30 3 35 21
34 11 -1 24 -6 27 -12z m367 12 c-26 -9 -105 -12 -105 -4 0 5 26 9 58 8 31 0
53 -2 47 -4z m-616 -22 c-13 -15 -12 -16 9 -11 19 5 22 2 22 -22 0 -24 -4 -28
-32 -31 -47 -6 -124 4 -118 15 5 8 -34 18 -72 17 -10 0 -18 5 -18 11 0 6 -6 6
-15 -2 -10 -9 -15 -9 -15 -1 0 6 -7 11 -15 11 -8 0 -15 4 -15 9 0 8 68 4 79
-5 1 -1 15 2 29 7 18 7 28 6 34 -3 6 -10 10 -10 17 1 6 10 22 12 55 9 26 -3
49 -2 52 3 3 5 8 9 11 9 3 0 -1 -8 -8 -17z m-289 -3 c0 -5 -2 -10 -4 -10 -3 0
-8 5 -11 10 -3 6 -1 10 4 10 6 0 11 -4 11 -10z m-852 -34 c-4 -13 -77 -14 -82
-1 -2 7 11 11 40 11 24 -1 43 -5 42 -10z m29 -8 c-3 -8 -6 -5 -6 6 -1 11 2 17
5 13 3 -3 4 -12 1 -19z m1193 2 c0 -5 -2 -10 -4 -10 -3 0 -8 5 -11 10 -3 6 -1
10 4 10 6 0 11 -4 11 -10z m30 0 c0 -5 -5 -10 -11 -10 -5 0 -7 5 -4 10 3 6 8
10 11 10 2 0 4 -4 4 -10z m-1244 -45 c2 -19 -3 -25 -20 -25 -17 0 -18 2 -6 10
8 5 11 10 6 10 -5 0 -3 7 4 15 16 19 15 19 16 -10z m-49 9 c-3 -3 -12 -4 -19
-1 -8 3 -5 6 6 6 11 1 17 -2 13 -5z m-36 -21 c13 -17 13 -17 -6 -3 -11 8 -22
16 -24 17 -2 2 0 3 6 3 6 0 17 -8 24 -17z m1358 -9 c6 4 11 3 11 -3 0 -5 -13
-9 -30 -9 -24 1 -28 4 -18 15 8 10 13 11 18 2 4 -6 13 -8 19 -5z m-1269 -26
c0 -4 -29 -8 -65 -8 -36 0 -65 3 -65 8 0 4 29 7 65 8 36 0 65 -3 65 -8z m1577
-25 c-3 -10 -5 -4 -5 12 0 17 2 24 5 18 2 -7 2 -21 0 -30z m-1609 -20 c-21 -2
-55 -2 -75 0 -21 2 -4 4 37 4 41 0 58 -2 38 -4z m1167 -2 c-93 -3 -321 -4
-505 -1 -308 6 -294 6 170 6 278 0 429 -2 335 -5z m543 2 c-16 -2 -40 -2 -55
0 -16 2 -3 4 27 4 30 0 43 -2 28 -4z m59 1 c-3 -3 -12 -4 -19 -1 -8 3 -5 6 6
6 11 1 17 -2 13 -5z m-1318 -46 c-1 -17 -3 -18 -6 -6 -4 16 -7 16 -27 3 -14
-10 -30 -13 -42 -8 -35 14 -23 28 27 31 46 3 49 1 48 -20z m66 11 c4 -5 -1 -9
-9 -9 -8 0 -20 -8 -25 -17 -9 -16 -10 -15 -11 7 0 19 6 26 20 27 11 1 22 -2
25 -8z m285 -4 c-28 -16 -54 -20 -46 -6 4 5 1 11 -6 13 -7 3 8 5 32 6 44 1 44
1 20 -13z m249 -1 c2 -2 -19 -4 -47 -4 -29 0 -52 4 -52 8 0 8 91 5 99 -4z
m155 1 c-4 -8 -8 -15 -10 -15 -2 0 -4 7 -4 15 0 8 4 15 10 15 5 0 7 -7 4 -15z
m31 5 c-9 -14 8 -12 25 3 8 6 6 2 -4 -10 -23 -28 -31 -29 -33 -3 -1 11 3 20 8
20 6 0 7 -4 4 -10z m78 3 c-7 -2 -19 -2 -25 0 -7 3 -2 5 12 5 14 0 19 -2 13
-5z m-212 -57 c-17 -20 -61 -27 -54 -9 3 8 14 13 24 10 10 -3 20 2 24 11 3 8
8 12 12 9 3 -4 1 -13 -6 -21z m99 17 c0 -17 -19 -37 -27 -29 -4 5 -2 11 5 13
6 3 10 9 6 14 -3 5 0 9 5 9 6 0 11 -3 11 -7z m-680 -20 c0 -2 -6 -11 -14 -18
-12 -12 -14 -11 -12 9 0 14 6 22 14 19 6 -3 12 -7 12 -10z m726 2 c-11 -8 -25
-15 -30 -15 -6 0 -2 7 8 15 11 8 25 15 30 15 6 0 2 -7 -8 -15z m-606 -5 c0 -5
-7 -10 -15 -10 -8 0 -15 5 -15 10 0 6 7 10 15 10 8 0 15 -4 15 -10z m295 0
c-3 -5 -12 -10 -18 -10 -7 0 -6 4 3 10 19 12 23 12 15 0z m-500 -10 c3 -6 -1
-7 -9 -4 -18 7 -21 14 -7 14 6 0 13 -4 16 -10z m670 -24 c-18 -28 -86 -86
-124 -106 -40 -21 -129 -38 -169 -33 -20 3 -54 14 -74 24 -21 11 -38 17 -38
13 0 -3 -27 20 -60 52 -33 32 -60 62 -60 68 0 6 19 -8 41 -31 22 -24 42 -43
45 -43 3 0 17 -9 32 -20 39 -28 146 -54 171 -41 11 6 30 11 43 11 41 0 127 50
165 96 39 46 56 53 28 10z m-544 -4 c-7 -2 -18 1 -23 6 -8 8 -4 9 13 5 13 -4
18 -8 10 -11z m519 14 c0 -3 -4 -8 -10 -11 -5 -3 -10 -1 -10 4 0 6 5 11 10 11
6 0 10 -2 10 -4z m168 -7 c-10 -5 -18 -16 -18 -22 0 -7 -9 -13 -20 -13 -11 0
-20 4 -20 8 0 4 6 8 14 8 7 0 19 7 26 15 7 8 18 15 24 15 6 0 3 -5 -6 -11z
m195 4 c-7 -2 -19 -2 -25 0 -7 3 -2 5 12 5 14 0 19 -2 13 -5z m-1206 -9 c-3
-3 -12 -4 -19 -1 -8 3 -5 6 6 6 11 1 17 -2 13 -5z"/>
<path d="M3680 1944 c0 -14 4 -23 9 -20 5 4 12 0 14 -6 4 -8 8 -4 12 10 7 22
35 32 35 12 0 -5 5 -10 10 -10 6 0 10 9 10 20 0 17 -7 20 -45 20 -42 0 -45 -2
-45 -26z"/>
<path d="M4198 2323 c7 -3 16 -2 19 1 4 3 -2 6 -13 5 -11 0 -14 -3 -6 -6z"/>
<path d="M4064 2252 c-6 -4 -15 -18 -19 -32 -7 -23 -6 -24 9 -11 34 29 43 65
10 43z"/>
<path d="M4935 2240 c-8 -13 15 -13 35 0 12 8 11 10 -7 10 -12 0 -25 -4 -28
-10z"/>
<path d="M4480 2208 c0 -8 5 -19 12 -26 20 -20 -22 -15 -46 6 -18 16 -18 14 2
-15 12 -17 22 -36 22 -41 0 -6 5 -14 12 -18 7 -5 8 -3 3 5 -4 7 2 23 16 37 18
19 21 29 13 41 -14 22 -34 28 -34 11z"/>
<path d="M4948 2203 c7 -3 16 -2 19 1 4 3 -2 6 -13 5 -11 0 -14 -3 -6 -6z"/>
<path d="M4375 2143 c0 -42 25 -64 52 -47 9 6 19 17 21 25 2 8 -2 6 -10 -5
-17 -21 -51 -18 -56 6 -2 10 7 20 25 26 22 8 24 11 8 11 -12 1 -25 5 -30 10
-6 6 -10 -3 -10 -26z"/>
<path d="M4884 2159 c-10 -11 -12 -19 -6 -19 7 0 12 4 12 9 0 5 10 11 23 13
18 3 19 4 5 10 -10 4 -23 -1 -34 -13z"/>
<path d="M4536 2148 c3 -10 1 -18 -5 -18 -6 0 -11 -4 -11 -10 0 -5 9 -10 20
-10 24 0 25 9 5 36 -13 16 -14 16 -9 2z"/>
<path d="M4826 2096 c4 -10 13 -15 20 -12 8 3 11 0 8 -8 -3 -7 1 -20 9 -27 8
-8 17 -21 21 -29 3 -9 4 -5 2 8 -3 16 1 22 15 22 12 0 19 7 19 20 0 11 5 20
10 20 6 0 10 5 10 12 0 6 -12 1 -26 -13 -26 -24 -26 -24 -15 -1 13 24 4 28
-34 13 -11 -5 -25 -4 -33 2 -9 7 -11 6 -6 -7z"/>
<path d="M4529 2073 c-13 -16 -12 -17 4 -4 16 13 21 21 13 21 -2 0 -10 -8 -17
-17z"/>
<path d="M4440 2051 c5 -11 7 -27 4 -35 -5 -13 -2 -14 26 -5 20 7 29 16 26 25
-3 8 -1 14 5 14 6 0 7 5 4 10 -12 19 -33 11 -28 -10 3 -11 0 -20 -6 -20 -6 0
-11 9 -11 20 0 11 -7 20 -15 20 -12 0 -13 -4 -5 -19z"/>
<path d="M4818 2053 c0 -10 -2 -22 -3 -28 -2 -5 -4 -21 -5 -35 -1 -14 -4 -19
-7 -12 -6 16 -23 6 -23 -14 0 -26 45 -13 46 14 1 12 10 32 20 44 19 20 19 21
-6 14 -21 -6 -22 -5 -7 4 9 6 15 15 12 21 -10 15 -25 10 -27 -8z"/>
<path d="M2639 2013 c-3 -18 -3 -33 0 -34 33 -4 64 -3 74 3 7 4 -4 8 -25 8
-32 0 -37 3 -40 28 -3 26 -4 26 -9 -5z"/>
<path d="M4350 2036 c0 -9 30 -14 35 -6 4 6 -3 10 -14 10 -12 0 -21 -2 -21 -4z"/>
<path d="M4408 2033 c7 -3 16 -2 19 1 4 3 -2 6 -13 5 -11 0 -14 -3 -6 -6z"/>
<path d="M4403 2009 c-22 -8 -32 -29 -15 -29 12 0 48 28 42 33 -3 3 -15 1 -27
-4z"/>
<path d="M4510 1990 c-8 -5 -11 -12 -7 -16 4 -4 15 0 24 9 18 18 8 23 -17 7z"/>
<path d="M2730 1986 c0 -2 7 -6 15 -10 8 -3 15 -1 15 4 0 6 -7 10 -15 10 -8 0
-15 -2 -15 -4z"/>
<path d="M2780 1980 c0 -5 5 -10 11 -10 5 0 7 5 4 10 -3 6 -8 10 -11 10 -2 0
-4 -4 -4 -10z"/>
<path d="M2819 1977 c5 -5 19 -7 32 -5 20 3 19 5 -9 9 -20 3 -29 2 -23 -4z"/>
<path d="M4435 1969 c-4 -6 -5 -12 -2 -15 2 -3 7 2 10 11 7 17 1 20 -8 4z"/>
<path d="M4630 1960 c-9 -6 -10 -10 -3 -10 6 0 15 5 18 10 8 12 4 12 -15 0z"/>
<path d="M4835 1949 c-9 -14 -2 -20 14 -10 8 6 9 11 3 15 -6 3 -14 1 -17 -5z"/>
<path d="M4636 1884 c3 -34 24 -57 24 -27 0 27 -10 53 -20 53 -4 0 -6 -12 -4
-26z"/>
<path d="M4510 1789 c0 -5 5 -7 10 -4 6 3 10 8 10 11 0 2 -4 4 -10 4 -5 0 -10
-5 -10 -11z"/>
<path d="M4589 1777 c4 -4 18 -3 32 2 23 9 22 9 -8 8 -18 -1 -28 -6 -24 -10z"/>
<path d="M1592 1168 c-1 -169 2 -309 6 -312 10 -6 10 -20 12 189 2 144 5 171
19 182 14 11 13 12 -7 13 -31 0 -23 25 9 27 13 0 89 2 169 4 l145 3 -168 6
c-104 3 -166 9 -165 15 2 6 6 9 11 8 4 -2 7 2 7 7 0 6 -7 10 -15 10 -11 0 -15
18 -17 78 -2 42 -5 -61 -6 -230z"/>
<path d="M4150 1395 c0 -68 -2 -75 -19 -75 -11 0 -23 -5 -27 -12 -5 -7 -2 -9
8 -6 8 4 21 2 29 -2 18 -12 0 -18 -66 -23 -40 -3 -35 -4 23 -5 44 -1 72 -6 72
-13 0 -6 -9 -13 -20 -16 -22 -6 -28 -23 -7 -23 9 0 12 -19 10 -67 -4 -115 -5
-267 -2 -290 2 -15 7 -19 13 -13 10 10 27 397 18 414 -2 4 -4 53 -3 107 2 84
0 99 -13 99 -13 0 -16 -14 -16 -75z"/>
<path d="M1946 1355 c3 -8 15 -17 26 -21 32 -10 32 3 -1 20 -26 14 -30 14 -25
1z"/>
<path d="M2235 1349 c-17 -11 -23 -19 -14 -19 17 0 57 26 49 33 -3 2 -18 -4
-35 -14z"/>
<path d="M3470 1360 c0 -5 9 -14 20 -20 11 -6 20 -7 20 -3 0 5 -9 14 -20 21
-11 7 -20 8 -20 2z"/>
<path d="M3792 1364 c-1 -6 -14 -17 -29 -23 -21 -8 -28 -19 -28 -39 -1 -15 -5
-52 -9 -82 -7 -45 -6 -53 5 -42 7 6 15 41 17 77 3 47 8 65 18 65 8 0 14 -8 14
-17 0 -12 3 -14 11 -6 6 6 9 26 6 44 -2 19 -5 29 -5 23z"/>
<path d="M1645 1310 c3 -5 8 -10 11 -10 2 0 4 5 4 10 0 6 -5 10 -11 10 -5 0
-7 -4 -4 -10z"/>
<path d="M2200 1245 c0 -37 4 -65 10 -65 6 0 10 22 10 49 0 27 3 56 6 65 4 11
1 16 -10 16 -13 0 -16 -12 -16 -65z"/>
<path d="M3630 1303 c0 -9 88 -8 97 1 4 3 -17 6 -45 6 -29 0 -52 -3 -52 -7z"/>
<path d="M1972 1255 c-1 -25 2 -45 6 -45 5 0 9 20 11 45 1 25 -2 45 -7 45 -5
0 -10 -20 -10 -45z"/>
<path d="M3504 1285 c-3 -8 -4 -20 -1 -27 3 -9 7 -6 13 7 4 11 12 23 18 27 7
5 4 8 -7 8 -10 0 -20 -7 -23 -15z"/>
<path d="M1650 1229 c0 -5 5 -7 10 -4 6 3 10 8 10 11 0 2 -4 4 -10 4 -5 0 -10
-5 -10 -11z"/>
<path d="M4100 1229 c0 -5 5 -7 10 -4 6 3 10 8 10 11 0 2 -4 4 -10 4 -5 0 -10
-5 -10 -11z"/>
<path d="M3500 1200 c0 -16 2 -30 4 -30 2 0 6 14 8 30 3 17 1 30 -4 30 -4 0
-8 -13 -8 -30z"/>
<path d="M4845 1220 c4 -6 11 -8 16 -5 14 9 11 15 -7 15 -8 0 -12 -5 -9 -10z"/>
<path d="M5417 1198 c-2 -7 3 -21 12 -31 15 -17 14 -18 -11 -12 -16 4 -29 2
-33 -5 -5 -8 -3 -11 6 -8 18 7 49 -9 49 -24 0 -9 -3 -9 -12 0 -16 16 -31 15
-22 0 6 -10 4 -10 -7 0 -16 15 -33 16 -23 1 4 -8 -11 -10 -52 -8 -33 2 -60 0
-61 -5 -1 -5 -7 -12 -13 -16 -9 -5 -9 -13 -1 -27 5 -11 7 -23 4 -27 -3 -3 -1
-6 5 -6 7 0 12 -7 12 -15 0 -8 5 -15 12 -15 6 0 8 -3 4 -7 -4 -5 -13 -8 -18
-8 -6 0 -13 -6 -16 -13 -3 -11 0 -12 16 -3 17 9 23 7 36 -10 8 -12 19 -18 26
-14 12 7 10 31 -5 70 -7 19 -7 19 7 2 13 -18 15 -18 38 1 22 18 22 20 6 19
-10 -1 -21 3 -23 9 -2 6 10 8 32 6 25 -3 35 0 35 9 1 9 6 7 15 -5 21 -27 19
-11 -2 21 -17 25 -16 25 4 19 38 -12 53 42 18 69 -14 11 -15 13 -4 9 10 -3 20
-1 24 5 3 6 -2 11 -12 11 -11 0 -24 5 -30 11 -8 8 -12 7 -16 -3z"/>
<path d="M1970 1178 c0 -9 5 -20 10 -23 13 -8 13 5 0 25 -8 13 -10 13 -10 -2z"/>
<path d="M3610 1179 c0 -5 5 -7 10 -4 6 3 10 8 10 11 0 2 -4 4 -10 4 -5 0 -10
-5 -10 -11z"/>
<path d="M3238 1163 c-8 -10 -14 -23 -11 -29 2 -7 -2 -11 -10 -10 -15 1 -107
-79 -107 -94 0 -5 -30 -23 -67 -41 -93 -44 -185 -51 -283 -19 -58 19 -82 34
-137 86 -38 35 -73 62 -80 59 -7 -2 -10 2 -7 9 3 7 -1 18 -9 24 -11 9 -18 8
-31 -7 -22 -24 -8 -56 33 -74 16 -6 58 -46 95 -87 97 -109 191 -147 315 -128
103 16 138 38 210 133 36 46 76 89 91 95 26 11 56 48 46 58 -3 3 -6 0 -6 -6 0
-7 -5 -12 -11 -12 -5 0 -8 4 -5 9 4 5 2 19 -2 31 -8 20 -9 20 -24 3z"/>
<path d="M3733 1163 c-15 -5 -18 -43 -4 -43 5 0 11 10 14 22 7 26 6 27 -10 21z"/>
<path d="M2207 1153 c-4 -3 -7 -11 -7 -17 0 -6 5 -5 12 2 6 6 9 14 7 17 -3 3
-9 2 -12 -2z"/>
<path d="M2620 1130 c0 -5 5 -10 10 -10 6 0 10 5 10 10 0 6 -4 10 -10 10 -5 0
-10 -4 -10 -10z"/>
<path d="M3723 1089 c4 -14 -1 -23 -16 -29 -17 -7 -18 -9 -4 -9 9 -1 17 -9 17
-18 0 -15 2 -16 10 -3 13 21 13 80 -1 80 -7 0 -9 -9 -6 -21z"/>
<path d="M2200 1045 c0 -14 2 -25 4 -25 2 0 6 11 8 25 3 14 1 25 -3 25 -5 0
-9 -11 -9 -25z"/>
<path d="M1980 1046 c0 -7 18 -10 51 -7 60 4 60 7 -3 13 -32 4 -48 2 -48 -6z"/>
<path d="M3658 1053 c7 -3 16 -2 19 1 4 3 -2 6 -13 5 -11 0 -14 -3 -6 -6z"/>
<path d="M3715 1000 c-3 -5 -1 -10 4 -10 6 0 11 5 11 10 0 6 -2 10 -4 10 -3 0
-8 -4 -11 -10z"/>
<path d="M3711 895 c-2 -81 -9 -94 -54 -106 -76 -20 -157 10 -157 59 0 19 -3
23 -9 13 -6 -10 -11 -6 -19 15 l-10 29 -1 -37 c-1 -26 -6 -38 -18 -42 -25 -7
-1068 -6 -1120 0 -40 6 -42 8 -51 53 -6 28 -10 37 -11 21 -2 -42 -17 -57 -41
-42 -18 11 -20 10 -20 -18 0 -37 -23 -50 -89 -50 -61 0 -100 16 -106 44 -2 12
-6 30 -8 41 -3 14 -5 12 -6 -7 -1 -34 -18 -36 -31 -5 l-9 22 0 -23 c-1 -35
-33 -41 -201 -37 -131 3 -156 6 -167 21 -11 15 -13 15 -19 1 -3 -9 -12 -13
-20 -10 -22 8 -16 -653 6 -667 19 -12 104 -19 282 -23 l147 -3 4 60 c3 55 4
54 4 -14 l0 -75 96 -3 c79 -2 97 0 97 12 0 23 138 28 783 24 l597 -3 2 70 2
70 5 -85 c6 -83 7 -85 31 -84 14 1 50 -2 80 -7 84 -13 85 -12 84 83 -1 69 0
72 3 17 l4 -66 187 4 c238 5 247 6 260 41 26 66 32 630 7 634 -5 1 -16 8 -24
15 -10 11 -16 11 -28 1 -10 -8 -68 -12 -191 -12 l-176 -1 -7 33 c-9 42 -18 52
-25 25 -9 -33 -41 -17 -52 25 l-10 37 -1 -50z m-1791 -95 c0 -6 -32 -10 -76
-10 -47 0 -73 4 -69 10 3 6 37 10 76 10 39 0 69 -4 69 -10z m975 1 c2 -5 -39
-11 -91 -13 -53 -3 -99 -10 -103 -15 -7 -11 -185 -10 -270 1 -37 5 -51 4 -46
-3 3 -6 2 -11 -4 -11 -5 0 -13 5 -17 11 -4 7 -22 9 -45 6 -25 -3 -39 -1 -43 8
-2 7 -2 16 2 19 9 10 611 6 617 -3z m233 -8 c-10 -2 -26 -2 -35 0 -10 3 -2 5
17 5 19 0 27 -2 18 -5z m250 0 c-43 -2 -113 -2 -155 0 -43 1 -8 3 77 3 85 0
120 -2 78 -3z m550 0 c-10 -2 -28 -2 -40 0 -13 2 -5 4 17 4 22 1 32 -1 23 -4z
m-290 -43 c63 2 81 2 142 -3 27 -2 60 -25 60 -42 0 -6 -15 -19 -32 -29 -18 -9
-26 -15 -18 -13 12 4 15 -6 17 -42 2 -42 1 -43 -8 -18 -10 24 -15 27 -60 27
-40 0 -49 -3 -50 -17 -1 -17 -2 -17 -6 0 -4 14 -16 17 -64 17 -60 0 -78 14
-37 29 21 8 21 8 -10 31 -23 17 -32 32 -32 53 0 25 2 28 15 17 10 -8 40 -12
83 -10z m-1711 -32 c-3 -7 -5 -2 -5 12 0 14 2 19 5 13 2 -7 2 -19 0 -25z m311
17 c21 -7 13 -24 -19 -40 -24 -13 -28 -19 -19 -30 13 -15 42 -5 68 25 11 13
12 11 10 -15 l-3 -30 85 -2 c47 -1 318 -2 603 -2 357 -1 517 -4 517 -12 0 -14
-1219 -8 -1221 6 -1 6 -5 -8 -9 -30 -7 -38 -7 -38 -9 -8 0 17 -4 34 -8 36 -5
3 -7 -25 -5 -62 3 -47 0 -71 -10 -78 -11 -10 -13 1 -10 63 l4 74 -30 0 c-16 0
-44 3 -61 6 -26 5 -31 3 -31 -12 0 -17 -1 -17 -13 0 -10 13 -24 17 -57 14 -41
-3 -45 -5 -48 -32 -2 -18 0 -26 7 -21 7 4 11 -5 11 -24 0 -16 -4 -32 -10 -36
-5 -3 -6 -13 -3 -22 4 -11 3 -14 -5 -9 -15 9 -16 36 -1 36 8 0 8 5 -1 15 -10
12 -10 15 1 15 10 0 10 3 1 12 -16 16 -15 59 3 82 20 27 19 31 -10 44 -30 14
-32 30 -6 40 20 7 256 5 279 -3z m1306 -68 c13 -10 15 -16 8 -21 -7 -4 -12
-12 -12 -17 0 -6 5 -7 10 -4 6 4 10 -16 10 -54 0 -32 3 -68 7 -78 6 -16 5 -16
-11 -4 -13 11 -15 23 -10 57 7 47 -4 81 -17 48 -5 -14 -9 -4 -14 34 -5 35 -11
49 -16 40 -6 -9 -9 -3 -9 18 0 41 13 51 25 20 6 -14 19 -32 29 -39z m313 31
c-3 -7 -5 -2 -5 12 0 14 2 19 5 13 2 -7 2 -19 0 -25z m-1882 -18 c3 -6 -1 -7
-9 -4 -18 7 -21 14 -7 14 6 0 13 -4 16 -10z m480 -18 c-6 -7 -45 9 -45 18 0 4
11 3 24 -3 14 -7 23 -13 21 -15z m-528 -34 c-2 -13 -4 -5 -4 17 -1 22 1 32 4
23 2 -10 2 -28 0 -40z m853 38 c0 -3 -4 -8 -10 -11 -5 -3 -10 -1 -10 4 0 6 5
11 10 11 6 0 10 -2 10 -4z m345 -14 c-3 -3 -11 0 -18 7 -9 10 -8 11 6 5 10 -3
15 -9 12 -12z m-1268 -18 c-3 -3 -12 -4 -19 -1 -8 3 -5 6 6 6 11 1 17 -2 13
-5z m794 -42 c-206 -1 -378 1 -382 5 -5 5 164 6 374 3 l382 -5 -374 -3z m-783
1 c-27 -2 -69 -2 -95 0 -27 2 -5 3 47 3 52 0 74 -1 48 -3z m300 -34 l3 -37
-46 1 c-33 0 -44 4 -41 13 3 8 0 11 -10 7 -21 -8 -17 7 8 34 16 17 31 23 53
21 27 -3 30 -7 33 -39z m967 31 c-7 -12 -49 -12 -85 0 -19 6 -11 8 33 9 36 1
56 -3 52 -9z m273 3 c-49 -2 -127 -2 -175 0 -49 1 -9 3 87 3 96 0 136 -2 88
-3z m282 -14 c0 -6 14 -9 33 -7 27 2 33 -1 35 -19 4 -25 7 -24 -110 -29 -46
-2 -48 -1 -48 25 0 15 3 31 7 34 11 11 83 8 83 -4z m-1642 -16 c5 -18 -28 -29
-38 -12 -5 7 -6 17 -3 22 7 12 35 5 41 -10z m152 3 c0 -8 -4 -18 -10 -21 -5
-3 -10 3 -10 14 0 12 5 21 10 21 6 0 10 -6 10 -14z m1390 -21 c0 -5 -5 -3 -10
5 -5 8 -10 20 -10 25 0 6 5 3 10 -5 5 -8 10 -19 10 -25z m-1245 4 c-10 -15
-25 -10 -19 6 4 8 10 12 15 9 5 -3 7 -10 4 -15z m1448 -9 c-7 -28 -13 -25 -13
6 0 14 4 23 9 20 5 -3 7 -15 4 -26z m-1283 -43 c0 -8 -7 -14 -15 -14 -16 0
-19 9 -8 20 11 11 23 8 23 -6z m137 -3 c2 -5 -6 -10 -17 -11 -20 -2 -26 8 -13
21 9 8 26 3 30 -10z m547 0 c5 -13 9 -14 21 -4 30 25 27 0 -4 -31 -18 -17 -35
-28 -39 -24 -4 3 2 13 12 21 15 11 17 17 8 26 -8 8 -15 8 -27 -2 -18 -15 -21
0 -3 18 16 16 25 15 32 -4z m616 6 c0 -5 -5 -10 -11 -10 -5 0 -7 5 -4 10 3 6
8 10 11 10 2 0 4 -4 4 -10z m-1220 -10 c0 -5 -2 -10 -4 -10 -3 0 -8 5 -11 10
-3 6 -1 10 4 10 6 0 11 -4 11 -10z m35 -79 c-7 -6 -65 50 -65 63 0 5 16 -5 35
-24 19 -18 32 -36 30 -39z m623 47 c-8 -12 -30 -33 -49 -47 -30 -22 -29 -20
11 22 48 51 61 59 38 25z m-703 -8 c3 -5 -1 -10 -9 -10 -9 0 -16 5 -16 10 0 6
4 10 9 10 6 0 13 -4 16 -10z m595 -78 c0 -15 -91 -52 -145 -58 -86 -10 -67 12
22 25 43 6 87 18 98 26 24 17 25 17 25 7z m-954 -122 c8 0 14 -7 14 -15 0 -8
-7 -15 -15 -15 -10 0 -15 -11 -15 -35 0 -24 -6 -37 -19 -45 -25 -13 -82 -13
-115 0 -24 9 -26 14 -26 72 0 37 4 58 9 50 6 -10 10 -10 21 2 7 9 17 13 22 10
5 -3 18 2 29 12 18 16 19 16 19 -2 1 -18 1 -18 14 -2 7 10 16 15 20 11 4 -4
10 4 14 17 6 21 8 18 10 -17 2 -29 8 -43 18 -43z m634 70 c0 -5 -2 -10 -4 -10
-3 0 -8 5 -11 10 -3 6 -1 10 4 10 6 0 11 -4 11 -10z m110 -11 c0 -12 -87 -11
-95 1 -4 6 14 9 45 9 27 -1 50 -6 50 -10z m700 -24 c6 4 19 3 28 -1 9 -4 30
-8 46 -9 16 -2 32 -9 37 -16 12 -20 2 -111 -13 -120 -18 -12 -91 -11 -123 1
-25 10 -26 13 -24 73 3 78 7 91 25 76 7 -6 18 -8 24 -4z"/>
<path d="M5365 921 c-3 -6 -3 -11 2 -12 4 0 16 -2 26 -4 11 -2 16 2 14 8 -5
16 -33 21 -42 8z"/>
<path d="M2030 820 c8 -5 20 -10 25 -10 6 0 3 5 -5 10 -8 5 -19 10 -25 10 -5
0 -3 -5 5 -10z"/>
<path d="M3527 819 c7 -7 15 -10 18 -7 3 3 -2 9 -12 12 -14 6 -15 5 -6 -5z"/>
<path d="M3666 814 c-17 -12 -17 -14 -4 -14 9 0 20 5 23 11 11 17 2 18 -19 3z"/>
<path d="M2158 813 c7 -3 16 -2 19 1 4 3 -2 6 -13 5 -11 0 -14 -3 -6 -6z"/>
<path d="M2088 803 c12 -2 30 -2 40 0 9 3 -1 5 -23 4 -22 0 -30 -2 -17 -4z"/>
<path d="M3568 803 c7 -3 16 -2 19 1 4 3 -2 6 -13 5 -11 0 -14 -3 -6 -6z"/>
<path d="M4394 341 c19 -21 46 -29 46 -12 0 5 -8 11 -17 15 -10 3 -25 9 -33
12 -10 5 -9 0 4 -15z"/>
<path d="M4477 343 c-16 -15 -5 -23 31 -23 l37 0 -29 15 c-33 17 -31 17 -39 8z"/>
<path d="M5415 262 c-6 -4 -12 -17 -12 -29 -1 -18 3 -21 25 -18 15 2 41 4 59
4 26 1 30 4 26 22 -7 26 -29 35 -47 20 -10 -8 -16 -9 -21 -1 -7 12 -16 13 -30
2z"/>
<path d="M5350 235 c-10 -13 -9 -15 8 -15 15 0 20 5 16 15 -4 8 -7 15 -9 15
-1 0 -8 -7 -15 -15z"/>
<path d="M5541 234 c0 -11 3 -14 6 -6 3 7 2 16 -1 19 -3 4 -6 -2 -5 -13z"/>
</g>
</svg>
