<svg id="Layer_1" data-name="Layer 1" xmlns="http://www.w3.org/2000/svg" viewBox="0 0 400 262.07"><defs><style>.cls-1{fill:#41479b;}.cls-2{fill:#f5f5f5;}.cls-3{fill:#ff4b55;}</style></defs><title>united-kingdom flag</title><path class="cls-1" d="M426,125H86a30,30,0,0,0-30,30V357.08a30,30,0,0,0,30,30H426a30,30,0,0,0,30-30V154.92A30,30,0,0,0,426,125Z" transform="translate(-56 -124.96)"/><path class="cls-2" d="M455.59,150A30,30,0,0,0,426,125h-7.79L290.48,208.67V125h-69v83.71L93.75,125H86a30,30,0,0,0-29.54,25l109.2,71.55H56v69H165.62L56.41,362A30,30,0,0,0,86,387h7.79l127.77-83.71V387h69V303.33L418.25,387H426a30,30,0,0,0,29.54-25l-109.2-71.55H456v-69H346.38Z" transform="translate(-56 -124.96)"/><polygon class="cls-3" points="220.69 0 179.31 0 179.31 110.34 0 110.34 0 151.72 179.31 151.72 179.31 262.07 220.69 262.07 220.69 151.72 400 151.72 400 110.34 220.69 110.34 220.69 0"/><path class="cls-3" d="M75.37,385.1l145.77-94.62H195.8L63.21,376.55A30,30,0,0,0,75.37,385.1Z" transform="translate(-56 -124.96)"/><path class="cls-3" d="M326.62,290.48H301.28l141.18,91.64a30.09,30.09,0,0,0,9.6-10.21Z" transform="translate(-56 -124.96)"/><path class="cls-3" d="M59.16,141.53l123.23,80h25.33L68.09,130.88A30.08,30.08,0,0,0,59.16,141.53Z" transform="translate(-56 -124.96)"/><path class="cls-3" d="M315.82,221.52l132.84-86.23a30,30,0,0,0-12.26-8.48L290.48,221.52Z" transform="translate(-56 -124.96)"/></svg>